# xmcd
#
# Track frame offsets:
#	150
#	7326
#	23825
#	45355
#	69963
#
# Disc length: 1233 seconds
# Revision: 0
# Processed by: cddbd v1.5.2PL0 Copyright (c) Steve Scherf et al.
# Submitted via: dBpowerAMP V12.0
#
DISCID=3504cf05
DTITLE=Nat Col And The Kings - Simple Things
DYEAR=2011
DGENRE=Blues Rock
TTITLE0=The Audio Boffin
TTITLE1=Simple Things
TTITLE2=Can't we All Get Along
TTITLE3=Bad Man
TTITLE4=Sunshine
EXTD=
EXTT0=
EXTT1=
EXTT2=
EXTT3=
EXTT4=
PLAYORDER=
